<svg width="1200" height="630" viewBox="0 0 1200 630" xmlns="http://www.w3.org/2000/svg"><mask id="satori_om-id"><rect x="0" y="0" width="1200" height="630" fill="#fff"/></mask><rect x="0" y="0" width="1200" height="630" fill="#0d1117"/><mask id="satori_om-id-0"><rect x="72" y="72" width="1056" height="49" fill="#fff"/></mask><mask id="satori_om-id-0-0"><rect x="72" y="75" width="44" height="44" fill="#fff"/></mask><path x="72" y="75" width="44" height="44" fill="#58a6ff" d="M84,75 h20 a12,12 0 0 1 12,12 v20 a12,12 0 0 1 -12,12 h-20 a12,12 0 0 1 -12,-12 v-20 a12,12 0 0 1 12,-12"/><mask id="satori_om-id-0-1"><rect x="136" y="75" width="313" height="44" fill="#fff"/></mask><g  ><path fill="#e6edf3" d="M159.0 110L145.1 110L145.1 83.5L159.0 83.5L159.0 110ZM148.5 86.9L148.5 106.6L155.6 106.6L155.6 86.9L148.5 86.9ZM175.0 110L161.2 110L161.2 83.5L175.0 83.5L175.0 110ZM164.6 86.9L164.6 106.6L171.6 106.6L171.6 86.9L164.6 86.9ZM191.1 110L177.2 110L177.2 83.5L191.1 83.5L191.1 110ZM180.6 86.9L180.6 106.6L187.7 106.6L187.7 86.9L180.6 86.9ZM207.1 110L193.3 110L193.3 83.5L207.1 83.5L207.1 110ZM196.7 86.9L196.7 106.6L203.7 106.6L203.7 86.9L196.7 86.9Z M231.2 110L217.3 110L217.3 83.5L231.2 83.5L231.2 110ZM220.7 86.9L220.7 106.6L227.8 106.6L227.8 86.9L220.7 86.9ZM247.2 110L233.4 110L233.4 83.5L247.2 83.5L247.2 110ZM236.8 86.9L236.8 106.6L243.8 106.6L243.8 86.9L236.8 86.9ZM263.3 110L249.4 110L249.4 83.5L263.3 83.5L263.3 110ZM252.8 86.9L252.8 106.6L259.9 106.6L259.9 86.9L252.8 86.9ZM279.3 110L265.5 110L265.5 83.5L279.3 83.5L279.3 110ZM268.9 86.9L268.9 106.6L275.9 106.6L275.9 86.9L268.9 86.9ZM295.4 110L281.5 110L281.5 83.5L295.4 83.5L295.4 110ZM284.9 86.9L284.9 106.6L292.0 106.6L292.0 86.9L284.9 86.9Z M319.5 110L305.6 110L305.6 83.5L319.5 83.5L319.5 110ZM309.0 86.9L309.0 106.6L316.1 106.6L316.1 86.9L309.0 86.9ZM335.5 110L321.6 110L321.6 83.5L335.5 83.5L335.5 110ZM325.0 86.9L325.0 106.6L332.1 106.6L332.1 86.9L325.0 86.9Z M351.6 110L337.7 110L337.7 83.5L351.6 83.5L351.6 110ZM341.1 86.9L341.1 106.6L348.2 106.6L348.2 86.9L341.1 86.9ZM367.6 110L353.7 110L353.7 83.5L367.6 83.5L367.6 110ZM357.1 86.9L357.1 106.6L364.2 106.6L364.2 86.9L357.1 86.9ZM383.7 110L369.8 110L369.8 83.5L383.7 83.5L383.7 110ZM373.2 86.9L373.2 106.6L380.3 106.6L380.3 86.9L373.2 86.9ZM399.7 110L385.8 110L385.8 83.5L399.7 83.5L399.7 110ZM389.2 86.9L389.2 106.6L396.3 106.6L396.3 86.9L389.2 86.9ZM415.8 110L401.9 110L401.9 83.5L415.8 83.5L415.8 110ZM405.3 86.9L405.3 106.6L412.4 106.6L412.4 86.9L405.3 86.9ZM431.8 110L417.9 110L417.9 83.5L431.8 83.5L431.8 110ZM421.3 86.9L421.3 106.6L428.4 106.6L428.4 86.9L421.3 86.9ZM447.8 110L434.0 110L434.0 83.5L447.8 83.5L447.8 110ZM437.4 86.9L437.4 106.6L444.4 106.6L444.4 86.9L437.4 86.9Z "/></g><mask id="satori_om-id-0-2"><rect x="481" y="72" width="123" height="49" fill="#fff"/></mask><defs><clipPath id="satori_bc-id-0-2-0"><path x="481" y="72" width="123" height="49" d="M505.5,72 h74 a24.5,24.5 0 0 1 24.5,24.5 v0 a24.5,24.5 0 0 1 -24.5,24.5 h-74 a24.5,24.5 0 0 1 -24.5,-24.5 v0 a24.5,24.5 0 0 1 24.5,-24.5"/></clipPath></defs><mask id="satori_om-id-0-2-0"><rect x="483" y="74" width="119" height="45" fill="#fff"/><path width="123" height="49" fill="none" stroke="#000" stroke-width="4" d="M488.176,79.176 A24.5,24.5 0 0 1 505.5,72 h74 a24.5,24.5 0 0 1 24.5,24.5 v0 a24.5,24.5 0 0 1 -24.5,24.5 h-74 a24.5,24.5 0 0 1 -24.5,-24.5 v0 A24.5,24.5 0 0 1 488.176,79.176"/></mask><path width="123" height="49" clip-path="url(#satori_bc-id-0-2-0)" fill="none" stroke="#30363d" stroke-width="4" d="M488.176,79.176 A24.5,24.5 0 0 1 505.5,72 h74 a24.5,24.5 0 0 1 24.5,24.5 v0 a24.5,24.5 0 0 1 -24.5,24.5 h-74 a24.5,24.5 0 0 1 -24.5,-24.5 v0 A24.5,24.5 0 0 1 488.176,79.176"/><g  ><path fill="#6e7681" d="M517.0 105L517.0 102.8L516.9 102.8Q516.6 103.8 515.5 104.5Q514.4 105.3 512.7 105.3L512.7 105.3Q511.2 105.3 510.1 104.7Q508.9 104.2 508.1 103.2Q507.2 102.2 506.7 100.7Q506.3 99.3 506.3 97.3L506.3 97.3Q506.3 95.4 506.7 93.9Q507.2 92.4 508.1 91.4Q508.9 90.4 510.1 89.9Q511.3 89.4 512.8 89.4L512.8 89.4Q514.9 89.4 516.3 90.3Q517.6 91.2 518.4 92.7L518.4 92.7L516.9 93.7Q516.4 92.4 515.3 91.7Q514.3 91.0 512.8 91.0L512.8 91.0Q511.8 91.0 511.0 91.4Q510.1 91.8 509.5 92.4Q508.9 93.1 508.6 94Q508.3 94.9 508.3 96.1L508.3 96.1L508.3 98.6Q508.3 99.7 508.6 100.6Q508.9 101.6 509.5 102.2Q510.1 102.9 511.0 103.3Q511.9 103.6 513.0 103.6L513.0 103.6Q513.8 103.6 514.5 103.4Q515.2 103.2 515.7 102.8Q516.3 102.4 516.6 101.7Q516.9 101.1 516.9 100.2L516.9 100.2L516.9 98.7L513.5 98.7L513.5 97.1L518.7 97.1L518.7 105L517.0 105ZM524.2 89.6L526.1 89.6L526.1 99.1Q526.1 101.3 526.9 102.5Q527.7 103.6 529.7 103.6L529.7 103.6Q531.8 103.6 532.6 102.5Q533.4 101.3 533.4 99.1L533.4 99.1L533.4 89.6L535.3 89.6L535.3 98.7Q535.3 100.4 535.0 101.6Q534.7 102.8 534.0 103.7Q533.4 104.5 532.3 104.9Q531.2 105.3 529.7 105.3L529.7 105.3Q528.1 105.3 527.1 104.9Q526.1 104.5 525.4 103.7Q524.8 102.8 524.5 101.6Q524.2 100.4 524.2 98.7L524.2 98.7L524.2 89.6ZM546.7 105L540.5 105L540.5 103.5L542.7 103.5L542.7 91.2L540.5 91.2L540.5 89.6L546.7 89.6L546.7 91.2L544.5 91.2L544.5 103.5L546.7 103.5L546.7 105ZM552.1 105L552.1 89.6L557.2 89.6Q558.6 89.6 559.8 90.1Q561.0 90.6 561.8 91.6Q562.6 92.5 563.1 94.0Q563.5 95.4 563.5 97.3L563.5 97.3Q563.5 99.2 563.1 100.7Q562.6 102.1 561.8 103.1Q561.0 104.0 559.8 104.5Q558.6 105 557.2 105L557.2 105L552.1 105ZM553.9 103.4L557.2 103.4Q558.1 103.4 558.9 103.1Q559.7 102.7 560.3 102.1Q560.9 101.5 561.2 100.6Q561.5 99.7 561.5 98.6L561.5 98.6L561.5 96.1Q561.5 94.9 561.2 94.0Q560.9 93.1 560.3 92.5Q559.7 91.9 558.9 91.6Q558.1 91.3 557.2 91.3L557.2 91.3L553.9 91.3L553.9 103.4ZM578.2 105L568.8 105L568.8 89.6L578.2 89.6L578.2 91.3L570.7 91.3L570.7 96.4L577.7 96.4L577.7 98.0L570.7 98.0L570.7 103.4L578.2 103.4L578.2 105Z "/></g><mask id="satori_om-id-1"><rect x="72" y="227" width="1056" height="191" fill="#fff"/></mask><mask id="satori_om-id-1-0"><rect x="72" y="227" width="1000" height="83" fill="#fff"/></mask><g  ><path fill="#e6edf3" d="M120.7 295L91.3 295L91.3 238.8L120.7 238.8L120.7 295ZM98.5 246.0L98.5 287.8L113.5 287.8L113.5 246.0L98.5 246.0ZM154.7 295L125.3 295L125.3 238.8L154.7 238.8L154.7 295ZM132.5 246.0L132.5 287.8L147.5 287.8L147.5 246.0L132.5 246.0ZM188.6 295L159.3 295L159.3 238.8L188.6 238.8L188.6 295ZM166.5 246.0L166.5 287.8L181.4 287.8L181.4 246.0L166.5 246.0ZM222.6 295L193.2 295L193.2 238.8L222.6 238.8L222.6 295ZM200.4 246.0L200.4 287.8L215.4 287.8L215.4 246.0L200.4 246.0ZM256.6 295L227.2 295L227.2 238.8L256.6 238.8L256.6 295ZM234.4 246.0L234.4 287.8L249.4 287.8L249.4 246.0L234.4 246.0Z M294.6 295L294.6 274.4L275.4 274.4L275.4 295L264.5 295L264.5 244.7L275.4 244.7L275.4 264.8L294.6 264.8L294.6 244.7L305.5 244.7L305.5 295L294.6 295ZM350.8 295L316.6 295L316.6 244.7L350.8 244.7L350.8 254.5L327.5 254.5L327.5 264.8L347.5 264.8L347.5 274.4L327.5 274.4L327.5 285.3L350.8 285.3L350.8 295ZM382.2 295L358.3 295L358.3 286.3L364.8 286.3L364.8 253.5L358.3 253.5L358.3 244.7L382.2 244.7L382.2 253.5L375.8 253.5L375.8 286.3L382.2 286.3L382.2 295ZM411.7 295.9L411.7 295.9Q406.6 295.9 402.5 294.2Q398.4 292.6 395.5 289.4Q392.6 286.2 391.0 281.4Q389.4 276.6 389.4 270.2L389.4 270.2Q389.4 263.9 391.0 259.0Q392.6 254.0 395.5 250.7Q398.4 247.3 402.5 245.6Q406.6 243.9 411.7 243.9L411.7 243.9Q418.7 243.9 423.2 246.7Q427.8 249.6 430.5 255.7L430.5 255.7L421.1 260.6Q420.0 257.4 417.9 255.5Q415.8 253.6 411.7 253.6L411.7 253.6Q406.9 253.6 404.0 256.7Q401.0 259.9 401.0 265.8L401.0 265.8L401.0 273.9Q401.0 279.9 404.0 283.0Q406.9 286.1 411.7 286.1L411.7 286.1Q415.7 286.1 418.1 283.9Q420.6 281.8 421.7 278.7L421.7 278.7L430.6 283.8Q427.8 289.6 423.3 292.7Q418.7 295.9 411.7 295.9Z M498.4 295L469.0 295L469.0 238.8L498.4 238.8L498.4 295ZM476.2 246.0L476.2 287.8L491.2 287.8L491.2 246.0L476.2 246.0ZM532.4 295L503.0 295L503.0 238.8L532.4 238.8L532.4 295ZM510.2 246.0L510.2 287.8L525.2 287.8L525.2 246.0L510.2 246.0ZM566.4 295L537.0 295L537.0 238.8L566.4 238.8L566.4 295ZM544.2 246.0L544.2 287.8L559.2 287.8L559.2 246.0L544.2 246.0Z M577.4 244.7L603.6 244.7L603.6 280.5Q603.6 283.9 602.5 286.8Q601.4 289.6 599.3 291.6Q597.1 293.6 594.0 294.7Q591.0 295.8 587.1 295.8L587.1 295.8Q583.3 295.8 580.5 294.8Q577.7 293.8 575.6 291.9Q573.6 290.0 572.3 287.4Q571.0 284.8 570.5 281.7L570.5 281.7L580.7 279.7Q581.9 286.2 586.9 286.2L586.9 286.2Q589.3 286.2 591.0 284.7Q592.7 283.2 592.7 280.0L592.7 280.0L592.7 253.5L577.4 253.5L577.4 244.7ZM625.4 295L614.4 295L614.4 244.7L638.2 244.7Q641.7 244.7 644.5 245.9Q647.4 247.1 649.3 249.2Q651.3 251.3 652.4 254.3Q653.5 257.3 653.5 260.8L653.5 260.8Q653.5 264.4 652.4 267.4Q651.3 270.3 649.3 272.4Q647.4 274.5 644.5 275.7Q641.7 276.9 638.2 276.9L638.2 276.9L625.4 276.9L625.4 295ZM625.4 254.2L625.4 267.4L636.9 267.4Q639.4 267.4 640.8 266.1Q642.2 264.8 642.2 262.4L642.2 262.4L642.2 259.2Q642.2 256.8 640.8 255.5Q639.4 254.2 636.9 254.2L636.9 254.2L625.4 254.2ZM693.6 295L693.6 287.0L693.2 287.0Q692.6 290.8 689.3 293.3Q686.0 295.9 680.3 295.9L680.3 295.9Q676.0 295.9 672.3 294.2Q668.5 292.6 665.7 289.3Q662.9 286.1 661.3 281.2Q659.7 276.4 659.7 270.1L659.7 270.1Q659.7 263.8 661.4 258.9Q663.0 254.0 666.0 250.6Q669.0 247.3 673.2 245.6Q677.4 243.9 682.5 243.9L682.5 243.9Q689.3 243.9 694.2 246.8Q699.0 249.7 701.9 255.5L701.9 255.5L692.9 260.7Q691.8 257.7 689.3 255.7Q686.9 253.6 682.5 253.6L682.5 253.6Q677.4 253.6 674.4 256.6Q671.3 259.5 671.3 265.8L671.3 265.8L671.3 273.9Q671.3 280.2 674.4 283.2Q677.4 286.1 682.5 286.1L682.5 286.1Q684.5 286.1 686.3 285.7Q688.1 285.2 689.5 284.2Q690.8 283.3 691.6 281.9Q692.4 280.5 692.4 278.7L692.4 278.7L692.4 276.1L683.0 276.1L683.0 267.0L702.8 267.0L702.8 295L693.6 295Z "/></g><mask id="satori_om-id-1-1"><rect x="72" y="334" width="980" height="84" fill="#fff"/></mask><g  ><path fill="#6e7681" d="M92.3 366L80.0 366L80.0 342.6L92.3 342.6L92.3 366ZM81.8 344.4L81.8 364.2L90.5 364.2L90.5 344.4L81.8 344.4ZM106.4 366L94.2 366L94.2 342.6L106.4 342.6L106.4 366ZM96 344.4L96 364.2L104.6 364.2L104.6 344.4L96 344.4ZM120.6 366L108.4 366L108.4 342.6L120.6 342.6L120.6 366ZM110.2 344.4L110.2 364.2L118.8 364.2L118.8 344.4L110.2 344.4ZM134.8 366L122.5 366L122.5 342.6L134.8 342.6L134.8 366ZM124.3 344.4L124.3 364.2L133.0 364.2L133.0 344.4L124.3 344.4Z M156.3 366L144.0 366L144.0 342.6L156.3 342.6L156.3 366ZM145.8 344.4L145.8 364.2L154.5 364.2L154.5 344.4L145.8 344.4ZM170.4 366L158.2 366L158.2 342.6L170.4 342.6L170.4 366ZM160 344.4L160 364.2L168.6 364.2L168.6 344.4L160 344.4ZM184.6 366L172.4 366L172.4 342.6L184.6 342.6L184.6 366ZM174.2 344.4L174.2 364.2L182.8 364.2L182.8 344.4L174.2 344.4Z M200.9 366L200.9 356.5L190.3 356.5L190.3 366L187.8 366L187.8 345.1L190.3 345.1L190.3 354.3L200.9 354.3L200.9 345.1L203.4 345.1L203.4 366L200.9 366ZM221.8 366L209 366L209 345.1L221.8 345.1L221.8 347.3L211.5 347.3L211.5 354.3L221.2 354.3L221.2 356.5L211.5 356.5L211.5 363.8L221.8 363.8L221.8 366ZM233.9 366L225.5 366L225.5 363.9L228.4 363.9L228.4 347.2L225.5 347.2L225.5 345.1L233.9 345.1L233.9 347.2L231.0 347.2L231.0 363.9L233.9 363.9L233.9 366ZM245.9 366.4L245.9 366.4Q241.9 366.4 239.7 363.6Q237.4 360.9 237.4 355.6L237.4 355.6Q237.4 350.4 239.7 347.5Q241.9 344.7 245.9 344.7L245.9 344.7Q248.5 344.7 250.3 345.9Q252.1 347.1 253.1 349.3L253.1 349.3L251.0 350.5Q250.4 348.9 249.1 347.9Q247.8 346.9 245.9 346.9L245.9 346.9Q244.5 346.9 243.5 347.5Q242.4 348.0 241.7 348.9Q240.9 349.9 240.5 351.2Q240.1 352.5 240.1 354.1L240.1 354.1L240.1 357.2Q240.1 360.4 241.6 362.3Q243.1 364.1 245.9 364.1L245.9 364.1Q247.9 364.1 249.2 363.1Q250.6 362.0 251.2 360.3L251.2 360.3L253.2 361.6Q252.2 363.8 250.4 365.1Q248.5 366.4 245.9 366.4Z M282.3 366L270.0 366L270.0 342.6L282.3 342.6L282.3 366ZM271.8 344.4L271.8 364.2L280.5 364.2L280.5 344.4L271.8 344.4ZM296.4 366L284.2 366L284.2 342.6L296.4 342.6L296.4 366ZM286 344.4L286 364.2L294.6 364.2L294.6 344.4L286 344.4ZM310.6 366L298.4 366L298.4 342.6L310.6 342.6L310.6 366ZM300.2 344.4L300.2 364.2L308.8 364.2L308.8 344.4L300.2 344.4ZM324.8 366L312.5 366L312.5 342.6L324.8 342.6L324.8 366ZM314.3 344.4L314.3 364.2L323.0 364.2L323.0 344.4L314.3 344.4Z M345.3 366L333.0 366L333.0 342.6L345.3 342.6L345.3 366ZM334.8 344.4L334.8 364.2L343.5 364.2L343.5 344.4L334.8 344.4ZM359.4 366L347.2 366L347.2 342.6L359.4 342.6L359.4 366ZM349 344.4L349 364.2L357.6 364.2L357.6 344.4L349 344.4ZM373.6 366L361.4 366L361.4 342.6L373.6 342.6L373.6 366ZM363.2 344.4L363.2 364.2L371.8 364.2L371.8 344.4L363.2 344.4ZM387.8 366L375.5 366L375.5 342.6L387.8 342.6L387.8 366ZM377.3 344.4L377.3 364.2L386.0 364.2L386.0 344.4L377.3 344.4ZM401.9 366L389.7 366L389.7 342.6L401.9 342.6L401.9 366ZM391.5 344.4L391.5 364.2L400.1 364.2L400.1 344.4L391.5 344.4ZM416.1 366L403.8 366L403.8 342.6L416.1 342.6L416.1 366ZM405.6 344.4L405.6 364.2L414.3 364.2L414.3 344.4L405.6 344.4Z M420.8 346.9L420.8 346.9Q420.0 346.9 419.6 346.5Q419.3 346.1 419.3 345.5L419.3 345.5L419.3 345.1Q419.3 344.6 419.6 344.2Q420.0 343.8 420.8 343.8L420.8 343.8Q421.5 343.8 421.9 344.2Q422.2 344.6 422.2 345.1L422.2 345.1L422.2 345.5Q422.2 346.1 421.9 346.5Q421.5 346.9 420.8 346.9ZM419.6 366L419.6 350.5L421.9 350.5L421.9 366L419.6 366ZM429.8 366L427.3 366L427.3 345.1L435.6 345.1Q438.4 345.1 440.0 346.7Q441.5 348.3 441.5 351.1L441.5 351.1Q441.5 353.9 440.0 355.5Q438.4 357.1 435.6 357.1L435.6 357.1L429.8 357.1L429.8 366ZM429.8 347.3L429.8 354.8L435.6 354.8Q437.1 354.8 438.0 354.1Q438.8 353.3 438.8 351.8L438.8 351.8L438.8 350.3Q438.8 348.8 438.0 348.1Q437.1 347.3 435.6 347.3L435.6 347.3L429.8 347.3ZM445.2 366L445.2 343.8L447.6 343.8L447.6 353.0L447.8 353.0Q448.3 351.7 449.4 350.9Q450.4 350.2 452.1 350.2L452.1 350.2Q454.5 350.2 455.9 351.7Q457.3 353.3 457.3 356.1L457.3 356.1L457.3 366L454.9 366L454.9 356.5Q454.9 352.3 451.4 352.3L451.4 352.3Q450.7 352.3 450.0 352.5Q449.3 352.7 448.8 353.0Q448.3 353.4 447.9 354.0Q447.6 354.5 447.6 355.3L447.6 355.3L447.6 366L445.2 366ZM468.1 366.4L468.1 366.4Q466.6 366.4 465.3 365.8Q464.0 365.2 463.1 364.2Q462.2 363.1 461.6 361.6Q461.1 360.1 461.1 358.3L461.1 358.3Q461.1 356.4 461.6 354.9Q462.2 353.4 463.1 352.4Q464.0 351.3 465.3 350.7Q466.6 350.2 468.1 350.2L468.1 350.2Q469.7 350.2 471.0 350.7Q472.2 351.3 473.2 352.4Q474.1 353.4 474.6 354.9Q475.1 356.4 475.1 358.3L475.1 358.3Q475.1 360.1 474.6 361.6Q474.1 363.1 473.2 364.2Q472.2 365.2 471.0 365.8Q469.7 366.4 468.1 366.4ZM468.1 364.2L468.1 364.2Q470.1 364.2 471.3 363.0Q472.5 361.8 472.5 359.4L472.5 359.4L472.5 357.1Q472.5 354.7 471.3 353.5Q470.1 352.3 468.1 352.3L468.1 352.3Q466.2 352.3 464.9 353.5Q463.7 354.7 463.7 357.1L463.7 357.1L463.7 359.4Q463.7 361.8 464.9 363.0Q466.2 364.2 468.1 364.2ZM481.5 366L479.1 366L479.1 350.5L481.5 350.5L481.5 353.0L481.6 353.0Q482.2 351.7 483.2 350.9Q484.2 350.2 486.0 350.2L486.0 350.2Q488.4 350.2 489.8 351.7Q491.2 353.3 491.2 356.1L491.2 356.1L491.2 366L488.8 366L488.8 356.5Q488.8 352.3 485.3 352.3L485.3 352.3Q484.5 352.3 483.9 352.5Q483.2 352.7 482.6 353.0Q482.1 353.4 481.8 354.0Q481.5 354.5 481.5 355.3L481.5 355.3L481.5 366ZM501.9 366.4L501.9 366.4Q500.3 366.4 499.1 365.8Q497.8 365.2 496.9 364.2Q496.0 363.1 495.5 361.6Q495.0 360.1 495.0 358.3L495.0 358.3Q495.0 356.4 495.5 354.9Q496.0 353.4 496.9 352.4Q497.8 351.3 499.1 350.7Q500.3 350.2 501.9 350.2L501.9 350.2Q503.5 350.2 504.7 350.7Q506.0 351.3 506.8 352.3Q507.7 353.3 508.2 354.7Q508.6 356.1 508.6 357.7L508.6 357.7L508.6 358.9L497.5 358.9L497.5 359.6Q497.5 360.6 497.8 361.4Q498.1 362.3 498.7 362.9Q499.3 363.5 500.1 363.9Q501.0 364.3 502.1 364.3L502.1 364.3Q503.6 364.3 504.6 363.6Q505.7 362.9 506.3 361.6L506.3 361.6L508.1 362.8Q507.3 364.4 505.7 365.4Q504.1 366.4 501.9 366.4ZM501.9 352.2L501.9 352.2Q500.9 352.2 500.1 352.5Q499.3 352.9 498.7 353.5Q498.2 354.1 497.8 355.0Q497.5 355.8 497.5 356.9L497.5 356.9L497.5 357.1L506.0 357.1L506.0 356.7Q506.0 354.7 504.9 353.4Q503.8 352.2 501.9 352.2Z M538.3 366L526.0 366L526.0 342.6L538.3 342.6L538.3 366ZM527.8 344.4L527.8 364.2L536.5 364.2L536.5 344.4L527.8 344.4ZM552.4 366L540.2 366L540.2 342.6L552.4 342.6L552.4 366ZM542 344.4L542 364.2L550.6 364.2L550.6 344.4L542 344.4ZM566.6 366L554.4 366L554.4 342.6L566.6 342.6L566.6 366ZM556.2 344.4L556.2 364.2L564.8 364.2L564.8 344.4L556.2 344.4Z M569.9 345.1L579.7 345.1L579.7 360.6Q579.7 361.9 579.2 363.0Q578.8 364.1 578.0 364.8Q577.2 365.6 576.1 366.0Q575.0 366.4 573.7 366.4L573.7 366.4Q571.2 366.4 569.7 365.1Q568.3 363.8 567.8 361.6L567.8 361.6L570.1 361.1Q570.4 362.4 571.3 363.3Q572.1 364.1 573.7 364.1L573.7 364.1Q575.3 364.1 576.2 363.1Q577.1 362.1 577.1 360.1L577.1 360.1L577.1 347.3L569.9 347.3L569.9 345.1ZM587.6 366L585.1 366L585.1 345.1L593.4 345.1Q596.3 345.1 597.8 346.7Q599.3 348.3 599.3 351.1L599.3 351.1Q599.3 353.9 597.8 355.5Q596.3 357.1 593.4 357.1L593.4 357.1L587.6 357.1L587.6 366ZM587.6 347.3L587.6 354.8L593.4 354.8Q594.9 354.8 595.8 354.1Q596.6 353.3 596.6 351.8L596.6 351.8L596.6 350.3Q596.6 348.8 595.8 348.1Q594.9 347.3 593.4 347.3L593.4 347.3L587.6 347.3ZM616.0 366L603.3 366L603.3 345.1L616.0 345.1L616.0 347.3L605.8 347.3L605.8 354.3L615.4 354.3L615.4 356.5L605.8 356.5L605.8 363.8L616.0 363.8L616.0 366ZM634.3 366L634.3 362.9L634.2 362.9Q633.8 364.4 632.3 365.4Q630.8 366.4 628.4 366.4L628.4 366.4Q626.5 366.4 624.9 365.7Q623.3 364.9 622.1 363.6Q621.0 362.2 620.4 360.2Q619.7 358.2 619.7 355.5L619.7 355.5Q619.7 352.9 620.3 350.9Q621.0 348.9 622.1 347.5Q623.3 346.1 625.0 345.4Q626.6 344.7 628.6 344.7L628.6 344.7Q631.4 344.7 633.3 346.0Q635.2 347.2 636.2 349.3L636.2 349.3L634.2 350.6Q633.4 348.9 632.0 347.9Q630.6 346.9 628.6 346.9L628.6 346.9Q627.2 346.9 626.1 347.4Q625.0 347.9 624.1 348.8Q623.3 349.7 622.9 351Q622.4 352.3 622.4 353.8L622.4 353.8L622.4 357.2Q622.4 358.8 622.9 360.0Q623.3 361.3 624.1 362.2Q625.0 363.1 626.2 363.6Q627.4 364.1 628.9 364.1L628.9 364.1Q629.9 364.1 630.9 363.8Q631.9 363.5 632.6 363.0Q633.4 362.4 633.8 361.5Q634.2 360.7 634.2 359.5L634.2 359.5L634.2 357.4L629.6 357.4L629.6 355.2L636.7 355.2L636.7 366L634.3 366Z M666.3 366L654.0 366L654.0 342.6L666.3 342.6L666.3 366ZM655.8 344.4L655.8 364.2L664.5 364.2L664.5 344.4L655.8 344.4ZM680.4 366L668.2 366L668.2 342.6L680.4 342.6L680.4 366ZM670 344.4L670 364.2L678.6 364.2L678.6 344.4L670 344.4ZM694.6 366L682.4 366L682.4 342.6L694.6 342.6L694.6 366ZM684.2 344.4L684.2 364.2L692.8 364.2L692.8 344.4L684.2 344.4ZM708.8 366L696.5 366L696.5 342.6L708.8 342.6L708.8 366ZM698.3 344.4L698.3 364.2L707.0 364.2L707.0 344.4L698.3 344.4Z M721.2 366.4L721.2 366.4Q720.2 366.4 719.8 365.9Q719.3 365.4 719.3 364.6L719.3 364.6L719.3 364.2Q719.3 363.4 719.8 363.0Q720.2 362.5 721.2 362.5L721.2 362.5Q722.1 362.5 722.6 363.0Q723.0 363.4 723.0 364.2L723.0 364.2L723.0 364.6Q723.0 365.4 722.6 365.9Q722.1 366.4 721.2 366.4ZM738.4 366L726.2 366L726.2 342.6L738.4 342.6L738.4 366ZM728 344.4L728 364.2L736.6 364.2L736.6 344.4L728 344.4ZM752.6 366L740.4 366L740.4 342.6L752.6 342.6L752.6 366ZM742.2 344.4L742.2 364.2L750.8 364.2L750.8 344.4L742.2 344.4ZM766.8 366L754.5 366L754.5 342.6L766.8 342.6L766.8 366ZM756.3 344.4L756.3 364.2L765.0 364.2L765.0 344.4L756.3 344.4ZM780.9 366L768.7 366L768.7 342.6L780.9 342.6L780.9 366ZM770.5 344.4L770.5 364.2L779.1 364.2L779.1 344.4L770.5 344.4ZM795.1 366L782.8 366L782.8 342.6L795.1 342.6L795.1 366ZM784.6 344.4L784.6 364.2L793.3 364.2L793.3 344.4L784.6 344.4ZM809.2 366L797.0 366L797.0 342.6L809.2 342.6L809.2 366ZM798.8 344.4L798.8 364.2L807.4 364.2L807.4 344.4L798.8 344.4Z M830.3 366L818.0 366L818.0 342.6L830.3 342.6L830.3 366ZM819.8 344.4L819.8 364.2L828.5 364.2L828.5 344.4L819.8 344.4ZM844.4 366L832.2 366L832.2 342.6L844.4 342.6L844.4 366ZM834 344.4L834 364.2L842.6 364.2L842.6 344.4L834 344.4ZM858.6 366L846.4 366L846.4 342.6L858.6 342.6L858.6 366ZM848.2 344.4L848.2 364.2L856.8 364.2L856.8 344.4L848.2 344.4ZM872.8 366L860.5 366L860.5 342.6L872.8 342.6L872.8 366ZM862.3 344.4L862.3 364.2L871.0 364.2L871.0 344.4L862.3 344.4Z M894.3 366L882.0 366L882.0 342.6L894.3 342.6L894.3 366ZM883.8 344.4L883.8 364.2L892.5 364.2L892.5 344.4L883.8 344.4ZM908.4 366L896.2 366L896.2 342.6L908.4 342.6L908.4 366ZM898 344.4L898 364.2L906.6 364.2L906.6 344.4L898 344.4Z M929.3 366L917.0 366L917.0 342.6L929.3 342.6L929.3 366ZM918.8 344.4L918.8 364.2L927.5 364.2L927.5 344.4L918.8 344.4ZM943.4 366L931.2 366L931.2 342.6L943.4 342.6L943.4 366ZM933 344.4L933 364.2L941.6 364.2L941.6 344.4L933 344.4ZM957.6 366L945.4 366L945.4 342.6L957.6 342.6L957.6 366ZM947.2 344.4L947.2 364.2L955.8 364.2L955.8 344.4L947.2 344.4ZM971.8 366L959.5 366L959.5 342.6L971.8 342.6L971.8 366ZM961.3 344.4L961.3 364.2L970.0 364.2L970.0 344.4L961.3 344.4ZM985.9 366L973.7 366L973.7 342.6L985.9 342.6L985.9 366ZM975.5 344.4L975.5 364.2L984.1 364.2L984.1 344.4L975.5 344.4Z M92.3 408L80.0 408L80.0 384.6L92.3 384.6L92.3 408ZM81.8 386.4L81.8 406.2L90.5 406.2L90.5 386.4L81.8 386.4ZM106.4 408L94.2 408L94.2 384.6L106.4 384.6L106.4 408ZM96 386.4L96 406.2L104.6 406.2L104.6 386.4L96 386.4ZM120.6 408L108.4 408L108.4 384.6L120.6 384.6L120.6 408ZM110.2 386.4L110.2 406.2L118.8 406.2L118.8 386.4L110.2 386.4ZM134.8 408L122.5 408L122.5 384.6L134.8 384.6L134.8 408ZM124.3 386.4L124.3 406.2L133.0 406.2L133.0 386.4L124.3 386.4ZM148.9 408L136.7 408L136.7 384.6L148.9 384.6L148.9 408ZM138.5 386.4L138.5 406.2L147.1 406.2L147.1 386.4L138.5 386.4Z M172.3 400.0L151.1 400.0L151.1 397.7L172.3 397.7L172.3 400.0Z M200.3 408L188.0 408L188.0 384.6L200.3 384.6L200.3 408ZM189.8 386.4L189.8 406.2L198.5 406.2L198.5 386.4L189.8 386.4ZM214.4 408L202.2 408L202.2 384.6L214.4 384.6L214.4 408ZM204 386.4L204 406.2L212.6 406.2L212.6 386.4L204 386.4ZM228.6 408L216.4 408L216.4 384.6L228.6 384.6L228.6 408ZM218.2 386.4L218.2 406.2L226.8 406.2L226.8 386.4L218.2 386.4Z M250.3 408L238.0 408L238.0 384.6L250.3 384.6L250.3 408ZM239.8 386.4L239.8 406.2L248.5 406.2L248.5 386.4L239.8 386.4ZM264.4 408L252.2 408L252.2 384.6L264.4 384.6L264.4 408ZM254 386.4L254 406.2L262.6 406.2L262.6 386.4L254 386.4ZM278.6 408L266.4 408L266.4 384.6L278.6 384.6L278.6 408ZM268.2 386.4L268.2 406.2L276.8 406.2L276.8 386.4L268.2 386.4ZM292.8 408L280.5 408L280.5 384.6L292.8 384.6L292.8 408ZM282.3 386.4L282.3 406.2L291.0 406.2L291.0 386.4L282.3 386.4ZM306.9 408L294.7 408L294.7 384.6L306.9 384.6L306.9 408ZM296.5 386.4L296.5 406.2L305.1 406.2L305.1 386.4L296.5 386.4ZM321.1 408L308.8 408L308.8 384.6L321.1 384.6L321.1 408ZM310.6 386.4L310.6 406.2L319.3 406.2L319.3 386.4L310.6 386.4ZM335.2 408L323.0 408L323.0 384.6L335.2 384.6L335.2 408ZM324.8 386.4L324.8 406.2L333.4 406.2L333.4 386.4L324.8 386.4Z M356.3 408L344.0 408L344.0 384.6L356.3 384.6L356.3 408ZM345.8 386.4L345.8 406.2L354.5 406.2L354.5 386.4L345.8 386.4ZM370.4 408L358.2 408L358.2 384.6L370.4 384.6L370.4 408ZM360 386.4L360 406.2L368.6 406.2L368.6 386.4L360 386.4ZM384.6 408L372.4 408L372.4 384.6L384.6 384.6L384.6 408ZM374.2 386.4L374.2 406.2L382.8 406.2L382.8 386.4L374.2 386.4ZM398.8 408L386.5 408L386.5 384.6L398.8 384.6L398.8 408ZM388.3 386.4L388.3 406.2L397.0 406.2L397.0 386.4L388.3 386.4ZM412.9 408L400.7 408L400.7 384.6L412.9 384.6L412.9 408ZM402.5 386.4L402.5 406.2L411.1 406.2L411.1 386.4L402.5 386.4Z M429.9 408L429.9 398.5L419.3 398.5L419.3 408L416.8 408L416.8 387.1L419.3 387.1L419.3 396.3L429.9 396.3L429.9 387.1L432.4 387.1L432.4 408L429.9 408ZM450.8 408L438 408L438 387.1L450.8 387.1L450.8 389.3L440.5 389.3L440.5 396.3L450.2 396.3L450.2 398.5L440.5 398.5L440.5 405.8L450.8 405.8L450.8 408ZM462.9 408L454.5 408L454.5 405.9L457.4 405.9L457.4 389.2L454.5 389.2L454.5 387.1L462.9 387.1L462.9 389.2L460.0 389.2L460.0 405.9L462.9 405.9L462.9 408ZM474.9 408.4L474.9 408.4Q470.9 408.4 468.7 405.6Q466.4 402.9 466.4 397.6L466.4 397.6Q466.4 392.4 468.7 389.5Q470.9 386.7 474.9 386.7L474.9 386.7Q477.5 386.7 479.3 387.9Q481.1 389.1 482.1 391.3L482.1 391.3L480.0 392.5Q479.4 390.9 478.1 389.9Q476.8 388.9 474.9 388.9L474.9 388.9Q473.5 388.9 472.5 389.5Q471.4 390.0 470.7 390.9Q469.9 391.9 469.5 393.2Q469.1 394.5 469.1 396.1L469.1 396.1L469.1 399.2Q469.1 402.4 470.6 404.3Q472.1 406.1 474.9 406.1L474.9 406.1Q476.9 406.1 478.2 405.1Q479.6 404.0 480.2 402.3L480.2 402.3L482.2 403.6Q481.2 405.8 479.4 407.1Q477.5 408.4 474.9 408.4Z M510.3 408L498.0 408L498.0 384.6L510.3 384.6L510.3 408ZM499.8 386.4L499.8 406.2L508.5 406.2L508.5 386.4L499.8 386.4ZM524.4 408L512.2 408L512.2 384.6L524.4 384.6L524.4 408ZM514 386.4L514 406.2L522.6 406.2L522.6 386.4L514 386.4ZM538.6 408L526.4 408L526.4 384.6L538.6 384.6L538.6 408ZM528.2 386.4L528.2 406.2L536.8 406.2L536.8 386.4L528.2 386.4ZM552.8 408L540.5 408L540.5 384.6L552.8 384.6L552.8 408ZM542.3 386.4L542.3 406.2L551.0 406.2L551.0 386.4L542.3 386.4Z M574.3 408L562.0 408L562.0 384.6L574.3 384.6L574.3 408ZM563.8 386.4L563.8 406.2L572.5 406.2L572.5 386.4L563.8 386.4ZM588.4 408L576.2 408L576.2 384.6L588.4 384.6L588.4 408ZM578 386.4L578 406.2L586.6 406.2L586.6 386.4L578 386.4ZM602.6 408L590.4 408L590.4 384.6L602.6 384.6L602.6 408ZM592.2 386.4L592.2 406.2L600.8 406.2L600.8 386.4L592.2 386.4Z M608.1 408.4L608.1 408.4Q607.1 408.4 606.7 407.9Q606.3 407.4 606.3 406.6L606.3 406.6L606.3 406.2Q606.3 405.4 606.7 405.0Q607.1 404.5 608.1 404.5L608.1 404.5Q609.0 404.5 609.5 405.0Q609.9 405.4 609.9 406.2L609.9 406.2L609.9 406.6Q609.9 407.4 609.5 407.9Q609.0 408.4 608.1 408.4ZM625.4 408L613.1 408L613.1 384.6L625.4 384.6L625.4 408ZM614.9 386.4L614.9 406.2L623.6 406.2L623.6 386.4L614.9 386.4ZM639.5 408L627.3 408L627.3 384.6L639.5 384.6L639.5 408ZM629.1 386.4L629.1 406.2L637.7 406.2L637.7 386.4L629.1 386.4ZM653.7 408L641.4 408L641.4 384.6L653.7 384.6L653.7 408ZM643.2 386.4L643.2 406.2L651.9 406.2L651.9 386.4L643.2 386.4ZM667.8 408L655.6 408L655.6 384.6L667.8 384.6L667.8 408ZM657.4 386.4L657.4 406.2L666.0 406.2L666.0 386.4L657.4 386.4ZM682.0 408L669.8 408L669.8 384.6L682.0 384.6L682.0 408ZM671.6 386.4L671.6 406.2L680.2 406.2L680.2 386.4L671.6 386.4Z "/></g><mask id="satori_om-id-2"><rect x="72" y="524" width="1056" height="34" fill="#fff"/></mask><mask id="satori_om-id-2-0"><rect x="72" y="524" width="581" height="34" fill="#fff"/></mask><g  ><path fill="#58a6ff" d="M84.5 551L79.5 542.4L77.8 538.8L77.7 538.8L77.7 551L74.0 551L74.0 532.9L78.3 532.9L83.3 541.4L85.0 545.1L85.1 545.1L85.1 532.9L88.8 532.9L88.8 551L84.5 551ZM98.2 551.3L98.2 551.3Q96.6 551.3 95.5 550.8Q94.3 550.3 93.5 549.4Q92.6 548.5 92.2 547.1Q91.8 545.8 91.8 544.2L91.8 544.2Q91.8 542.5 92.2 541.2Q92.6 539.9 93.5 538.9Q94.3 538.0 95.5 537.5Q96.6 537.0 98.2 537.0L98.2 537.0Q99.7 537.0 100.8 537.5Q102.0 538.0 102.8 538.9Q103.7 539.9 104.1 541.2Q104.6 542.5 104.6 544.2L104.6 544.2Q104.6 545.8 104.1 547.1Q103.7 548.5 102.8 549.4Q102.0 550.3 100.8 550.8Q99.7 551.3 98.2 551.3ZM98.2 548.3L98.2 548.3Q99.3 548.3 99.9 547.6Q100.5 546.9 100.5 545.6L100.5 545.6L100.5 542.8Q100.5 541.5 99.9 540.8Q99.3 540.1 98.2 540.1L98.2 540.1Q97.0 540.1 96.4 540.8Q95.8 541.5 95.8 542.8L95.8 542.8L95.8 545.6Q95.8 546.9 96.4 547.6Q97.0 548.3 98.2 548.3Z M121.5 551L121.5 548.7L121.3 548.7Q121.2 549.2 120.9 549.7Q120.6 550.2 120.1 550.5Q119.6 550.9 119.0 551.1Q118.4 551.3 117.5 551.3L117.5 551.3Q115.4 551.3 114.3 549.9Q113.3 548.5 113.3 545.9L113.3 545.9L113.3 537.4L117.1 537.4L117.1 545.6Q117.1 546.8 117.6 547.5Q118.0 548.2 119.1 548.2L119.1 548.2Q119.5 548.2 119.9 548.1Q120.4 547.9 120.7 547.7Q121.1 547.4 121.3 547.1Q121.5 546.7 121.5 546.2L121.5 546.2L121.5 537.4L125.3 537.4L125.3 551L121.5 551ZM128.9 556.2L128.9 537.4L132.8 537.4L132.8 539.6L132.9 539.6Q133.2 538.5 134.2 537.8Q135.2 537.0 136.6 537.0L136.6 537.0Q139.2 537.0 140.5 538.9Q141.8 540.7 141.8 544.2L141.8 544.2Q141.8 547.6 140.5 549.5Q139.2 551.3 136.6 551.3L136.6 551.3Q135.9 551.3 135.3 551.1Q134.7 550.9 134.2 550.6Q133.7 550.2 133.4 549.7Q133.0 549.3 132.9 548.7L132.9 548.7L132.8 548.7L132.8 556.2L128.9 556.2ZM135.3 548.2L135.3 548.2Q136.4 548.2 137.1 547.4Q137.8 546.7 137.8 545.4L137.8 545.4L137.8 543.0Q137.8 541.7 137.1 540.9Q136.4 540.2 135.3 540.2L135.3 540.2Q134.2 540.2 133.5 540.7Q132.8 541.2 132.8 542.2L132.8 542.2L132.8 546.2Q132.8 547.1 133.5 547.7Q134.2 548.2 135.3 548.2ZM150.3 551L148.5 551Q146.6 551 145.6 550.0Q144.7 549.1 144.7 547.3L144.7 547.3L144.7 531.8L148.6 531.8L148.6 548.0L150.3 548.0L150.3 551ZM158.1 551.3L158.1 551.3Q156.6 551.3 155.4 550.8Q154.3 550.3 153.4 549.4Q152.6 548.5 152.2 547.1Q151.7 545.8 151.7 544.2L151.7 544.2Q151.7 542.5 152.2 541.2Q152.6 539.9 153.4 538.9Q154.3 538.0 155.4 537.5Q156.6 537.0 158.1 537.0L158.1 537.0Q159.6 537.0 160.8 537.5Q162.0 538.0 162.8 538.9Q163.6 539.9 164.1 541.2Q164.5 542.5 164.5 544.2L164.5 544.2Q164.5 545.8 164.1 547.1Q163.6 548.5 162.8 549.4Q162.0 550.3 160.8 550.8Q159.6 551.3 158.1 551.3ZM158.1 548.3L158.1 548.3Q159.3 548.3 159.9 547.6Q160.5 546.9 160.5 545.6L160.5 545.6L160.5 542.8Q160.5 541.5 159.9 540.8Q159.3 540.1 158.1 540.1L158.1 540.1Q157.0 540.1 156.4 540.8Q155.7 541.5 155.7 542.8L155.7 542.8L155.7 545.6Q155.7 546.9 156.4 547.6Q157.0 548.3 158.1 548.3ZM179.5 551L177.4 551Q176.3 551 175.6 550.4Q174.9 549.7 174.8 548.6L174.8 548.6L174.6 548.6Q174.3 549.9 173.2 550.6Q172.2 551.3 170.6 551.3L170.6 551.3Q168.5 551.3 167.4 550.2Q166.4 549.1 166.4 547.3L166.4 547.3Q166.4 545.2 167.9 544.1Q169.5 543.1 172.2 543.1L172.2 543.1L174.4 543.1L174.4 542.2Q174.4 541.2 173.8 540.6Q173.3 540.1 172.1 540.1L172.1 540.1Q171.0 540.1 170.3 540.5Q169.6 541.0 169.2 541.7L169.2 541.7L166.9 539.6Q167.7 538.4 169.0 537.7Q170.2 537.0 172.4 537.0L172.4 537.0Q175.3 537.0 176.8 538.3Q178.2 539.6 178.2 542.0L178.2 542.0L178.2 548.0L179.5 548.0L179.5 551ZM172.0 548.6L172.0 548.6Q173.0 548.6 173.7 548.2Q174.4 547.8 174.4 546.9L174.4 546.9L174.4 545.3L172.5 545.3Q170.2 545.3 170.2 546.8L170.2 546.8L170.2 547.2Q170.2 547.9 170.7 548.3Q171.2 548.6 172.0 548.6ZM190.4 551L190.4 548.7L190.3 548.7Q190.1 549.3 189.8 549.7Q189.5 550.2 189.0 550.6Q188.5 550.9 187.9 551.1Q187.3 551.3 186.6 551.3L186.6 551.3Q184.0 551.3 182.7 549.5Q181.4 547.6 181.4 544.2L181.4 544.2Q181.4 540.7 182.7 538.9Q184.0 537.0 186.6 537.0L186.6 537.0Q188.0 537.0 189.0 537.8Q190.0 538.5 190.3 539.6L190.3 539.6L190.4 539.6L190.4 531.8L194.3 531.8L194.3 551L190.4 551ZM187.9 548.2L187.9 548.2Q189.0 548.2 189.7 547.7Q190.4 547.1 190.4 546.2L190.4 546.2L190.4 542.2Q190.4 541.2 189.7 540.7Q189.0 540.2 187.9 540.2L187.9 540.2Q186.8 540.2 186.1 540.9Q185.4 541.7 185.4 543.0L185.4 543.0L185.4 545.4Q185.4 546.7 186.1 547.4Q186.8 548.2 187.9 548.2ZM202.5 551.3L202.5 551.3Q200.5 551.3 199.2 550.7Q197.8 550.0 196.7 548.9L196.7 548.9L199.0 546.6Q199.7 547.4 200.6 547.9Q201.5 548.3 202.6 548.3L202.6 548.3Q203.8 548.3 204.2 548.0Q204.7 547.6 204.7 547.0L204.7 547.0Q204.7 546.1 203.3 545.9L203.3 545.9L201.8 545.7Q197.2 545.1 197.2 541.5L197.2 541.5Q197.2 540.5 197.6 539.7Q197.9 538.9 198.6 538.3Q199.3 537.7 200.3 537.4Q201.3 537.0 202.5 537.0L202.5 537.0Q203.6 537.0 204.4 537.2Q205.2 537.3 205.8 537.6Q206.5 537.9 207.0 538.3Q207.5 538.7 208.1 539.2L208.1 539.2L205.8 541.4Q205.2 540.8 204.4 540.4Q203.6 540.0 202.7 540.0L202.7 540.0Q201.7 540.0 201.3 540.3Q200.9 540.7 200.9 541.2L200.9 541.2Q200.9 541.7 201.2 542.0Q201.5 542.3 202.3 542.4L202.3 542.4L203.8 542.7Q208.3 543.3 208.3 546.8L208.3 546.8Q208.3 547.8 207.9 548.6Q207.5 549.4 206.7 550.0Q206.0 550.6 204.9 551.0Q203.8 551.3 202.5 551.3ZM213.0 551.3L213.0 551.3Q211.8 551.3 211.3 550.7Q210.7 550.1 210.7 549.2L210.7 549.2L210.7 548.7Q210.7 547.8 211.3 547.2Q211.8 546.6 213.0 546.6L213.0 546.6Q214.2 546.6 214.7 547.2Q215.3 547.8 215.3 548.7L215.3 548.7L215.3 549.2Q215.3 550.1 214.7 550.7Q214.2 551.3 213.0 551.3Z M235.7 551L230.7 542.4L229.0 538.8L228.9 538.8L228.9 551L225.2 551L225.2 532.9L229.5 532.9L234.4 541.4L236.2 545.1L236.3 545.1L236.3 532.9L240.0 532.9L240.0 551L235.7 551ZM249.3 551.3L249.3 551.3Q247.8 551.3 246.6 550.8Q245.4 550.3 244.6 549.4Q243.8 548.5 243.4 547.1Q242.9 545.8 242.9 544.2L242.9 544.2Q242.9 542.5 243.4 541.2Q243.8 539.9 244.6 538.9Q245.4 538.0 246.6 537.5Q247.8 537.0 249.3 537.0L249.3 537.0Q250.8 537.0 252.0 537.5Q253.2 538.0 254.0 538.9Q254.8 539.9 255.3 541.2Q255.7 542.5 255.7 544.2L255.7 544.2Q255.7 545.8 255.3 547.1Q254.8 548.5 254.0 549.4Q253.2 550.3 252.0 550.8Q250.8 551.3 249.3 551.3ZM249.3 548.3L249.3 548.3Q250.5 548.3 251.1 547.6Q251.7 546.9 251.7 545.6L251.7 545.6L251.7 542.8Q251.7 541.5 251.1 540.8Q250.5 540.1 249.3 540.1L249.3 540.1Q248.2 540.1 247.6 540.8Q246.9 541.5 246.9 542.8L246.9 542.8L246.9 545.6Q246.9 546.9 247.6 547.6Q248.2 548.3 249.3 548.3Z M271.7 551L269.4 551Q267.4 551 266.3 550.0Q265.3 549.0 265.3 547.0L265.3 547.0L265.3 540.3L263.4 540.3L263.4 537.4L264.3 537.4Q265.1 537.4 265.4 537.0Q265.7 536.6 265.7 535.9L265.7 535.9L265.7 533.7L269.2 533.7L269.2 537.4L271.9 537.4L271.9 540.3L269.2 540.3L269.2 548.0L271.7 548.0L271.7 551ZM278.4 551L274.5 551L274.5 537.4L278.4 537.4L278.4 540.3L278.5 540.3Q278.6 539.7 278.9 539.2Q279.1 538.7 279.6 538.3Q280.0 537.8 280.6 537.6Q281.2 537.4 282.0 537.4L282.0 537.4L282.7 537.4L282.7 540.9L281.7 540.9Q280.0 540.9 279.2 541.4Q278.4 541.8 278.4 543.0L278.4 543.0L278.4 551ZM296.9 551L294.8 551Q293.7 551 293.0 550.4Q292.4 549.7 292.2 548.6L292.2 548.6L292.0 548.6Q291.7 549.9 290.6 550.6Q289.6 551.3 288.0 551.3L288.0 551.3Q286.0 551.3 284.9 550.2Q283.8 549.1 283.8 547.3L283.8 547.3Q283.8 545.2 285.3 544.1Q286.9 543.1 289.6 543.1L289.6 543.1L291.8 543.1L291.8 542.2Q291.8 541.2 291.3 540.6Q290.7 540.1 289.5 540.1L289.5 540.1Q288.4 540.1 287.7 540.5Q287.0 541.0 286.6 541.7L286.6 541.7L284.3 539.6Q285.1 538.4 286.4 537.7Q287.6 537.0 289.8 537.0L289.8 537.0Q292.7 537.0 294.2 538.3Q295.6 539.6 295.6 542.0L295.6 542.0L295.6 548.0L296.9 548.0L296.9 551ZM289.4 548.6L289.4 548.6Q290.4 548.6 291.1 548.2Q291.8 547.8 291.8 546.9L291.8 546.9L291.8 545.3L289.9 545.3Q287.6 545.3 287.6 546.8L287.6 546.8L287.6 547.2Q287.6 547.9 288.1 548.3Q288.6 548.6 289.4 548.6ZM305.0 551.3L305.0 551.3Q303.5 551.3 302.3 550.8Q301.1 550.3 300.3 549.4Q299.4 548.5 299.0 547.1Q298.6 545.8 298.6 544.2L298.6 544.2Q298.6 542.5 299.0 541.2Q299.4 539.9 300.3 539.0Q301.1 538.0 302.3 537.5Q303.5 537.0 305.0 537.0L305.0 537.0Q307.1 537.0 308.5 538.0Q309.8 538.9 310.4 540.6L310.4 540.6L307.3 542.0Q307.1 541.2 306.6 540.6Q306 540.1 305.0 540.1L305.0 540.1Q303.8 540.1 303.2 540.8Q302.6 541.6 302.6 542.9L302.6 542.9L302.6 545.5Q302.6 546.8 303.2 547.5Q303.8 548.3 305.0 548.3L305.0 548.3Q306.0 548.3 306.6 547.7Q307.2 547.2 307.5 546.2L307.5 546.2L310.5 547.5Q309.8 549.5 308.4 550.4Q307.0 551.3 305.0 551.3ZM312.9 551L312.9 531.8L316.8 531.8L316.8 543.1L316.9 543.1L318.6 540.6L321.3 537.4L325.6 537.4L321.1 542.6L326.1 551L321.5 551L318.5 545.2L316.8 547.2L316.8 551L312.9 551ZM329.8 535.9L329.8 535.9Q328.7 535.9 328.1 535.4Q327.6 534.8 327.6 534.0L327.6 534.0L327.6 533.4Q327.6 532.6 328.1 532.1Q328.7 531.5 329.8 531.5L329.8 531.5Q331.0 531.5 331.5 532.1Q332.1 532.6 332.1 533.4L332.1 533.4L332.1 534.0Q332.1 534.8 331.5 535.4Q331.0 535.9 329.8 535.9ZM327.9 551L327.9 537.4L331.8 537.4L331.8 551L327.9 551ZM339.2 551L335.4 551L335.4 537.4L339.2 537.4L339.2 539.7L339.4 539.7Q339.7 538.6 340.6 537.8Q341.5 537.0 343.2 537.0L343.2 537.0Q345.3 537.0 346.3 538.4Q347.4 539.8 347.4 542.4L347.4 542.4L347.4 551L343.6 551L343.6 542.8Q343.6 541.4 343.2 540.8Q342.7 540.2 341.7 540.2L341.7 540.2Q341.2 540.2 340.8 540.3Q340.3 540.4 340.0 540.7Q339.6 540.9 339.4 541.3Q339.2 541.7 339.2 542.2L339.2 542.2L339.2 551ZM363.5 552.0L363.5 552.0Q363.5 553.1 363.1 553.9Q362.7 554.7 361.9 555.3Q361.0 555.9 359.6 556.2Q358.2 556.5 356.1 556.5L356.1 556.5Q354.3 556.5 353.1 556.3Q351.9 556.1 351.1 555.7Q350.3 555.3 350.0 554.7Q349.6 554.1 349.6 553.3L349.6 553.3Q349.6 552.2 350.3 551.5Q351.0 550.9 352.2 550.7L352.2 550.7L352.2 550.5Q351.2 550.3 350.7 549.6Q350.2 548.9 350.2 548.1L350.2 548.1Q350.2 547.5 350.4 547.1Q350.6 546.7 351.0 546.4Q351.3 546.1 351.8 545.9Q352.3 545.7 352.7 545.6L352.7 545.6L352.7 545.5Q351.5 545.0 350.9 544.0Q350.3 543.0 350.3 541.6L350.3 541.6Q350.3 539.6 351.7 538.3Q353.2 537.0 356.2 537.0L356.2 537.0Q357.5 537.0 358.5 537.3L358.5 537.3L358.5 536.8Q358.5 535.7 359.0 535.2Q359.5 534.7 360.5 534.7L360.5 534.7L362.7 534.7L362.7 537.6L359.7 537.6L359.7 537.7Q360.9 538.3 361.4 539.3Q362.0 540.3 362.0 541.6L362.0 541.6Q362.0 543.7 360.6 544.9Q359.1 546.2 356.2 546.2L356.2 546.2Q354.8 546.2 353.7 545.9L353.7 545.9Q353.1 546.3 353.1 547.0L353.1 547.0Q353.1 547.5 353.5 547.7Q353.9 548.0 354.8 548.0L354.8 548.0L358.7 548.0Q361.2 548.0 362.4 549.0Q363.5 550.1 363.5 552.0ZM359.9 552.5L359.9 552.5Q359.9 551.9 359.4 551.6Q358.9 551.3 357.8 551.3L357.8 551.3L353.1 551.3Q352.8 551.5 352.7 551.9Q352.6 552.2 352.6 552.5L352.6 552.5Q352.6 553.3 353.2 553.6Q353.9 554.0 355.5 554.0L355.5 554.0L357.0 554.0Q358.6 554.0 359.2 553.6Q359.9 553.3 359.9 552.5ZM356.2 543.6L356.2 543.6Q357.3 543.6 357.9 543.2Q358.4 542.7 358.4 541.8L358.4 541.8L358.4 541.5Q358.4 540.5 357.9 540.1Q357.3 539.6 356.2 539.6L356.2 539.6Q355.0 539.6 354.5 540.1Q353.9 540.5 353.9 541.5L353.9 541.5L353.9 541.8Q353.9 542.7 354.5 543.2Q355.0 543.6 356.2 543.6ZM367.6 551.3L367.6 551.3Q366.4 551.3 365.9 550.7Q365.3 550.1 365.3 549.2L365.3 549.2L365.3 548.7Q365.3 547.8 365.9 547.2Q366.4 546.6 367.6 546.6L367.6 546.6Q368.8 546.6 369.3 547.2Q369.9 547.8 369.9 548.7L369.9 548.7L369.9 549.2Q369.9 550.1 369.3 550.7Q368.8 551.3 367.6 551.3Z M392.8 551L380.2 551L380.2 547.9L385.1 547.9L385.1 535.7L384.9 535.7L381.2 540.5L378.7 538.6L383.0 532.9L389.0 532.9L389.0 547.9L392.8 547.9L392.8 551ZM401.2 551.3L401.2 551.3Q397.6 551.3 395.9 548.8Q394.2 546.4 394.2 541.9L394.2 541.9Q394.2 537.5 395.9 535.0Q397.6 532.5 401.2 532.5L401.2 532.5Q404.7 532.5 406.4 535.0Q408.2 537.5 408.2 541.9L408.2 541.9Q408.2 546.4 406.4 548.8Q404.7 551.3 401.2 551.3ZM401.2 548.0L401.2 548.0Q402.7 548.0 403.3 546.9Q403.9 545.7 403.9 543.6L403.9 543.6L403.9 540.2Q403.9 538.1 403.3 537.0Q402.7 535.8 401.2 535.8L401.2 535.8Q399.6 535.8 399.0 537.0Q398.4 538.1 398.4 540.2L398.4 540.2L398.4 543.6Q398.4 545.7 399.0 546.9Q399.6 548.0 401.2 548.0ZM416.8 551.3L416.8 551.3Q413.2 551.3 411.5 548.8Q409.8 546.4 409.8 541.9L409.8 541.9Q409.8 537.5 411.5 535.0Q413.2 532.5 416.8 532.5L416.8 532.5Q420.3 532.5 422.0 535.0Q423.8 537.5 423.8 541.9L423.8 541.9Q423.8 546.4 422.0 548.8Q420.3 551.3 416.8 551.3ZM416.8 548.0L416.8 548.0Q418.3 548.0 418.9 546.9Q419.5 545.7 419.5 543.6L419.5 543.6L419.5 540.2Q419.5 538.1 418.9 537.0Q418.3 535.8 416.8 535.8L416.8 535.8Q415.2 535.8 414.6 537.0Q414.0 538.1 414.0 540.2L414.0 540.2L414.0 543.6Q414.0 545.7 414.6 546.9Q415.2 548.0 416.8 548.0ZM432.6 551L429.2 551L441.8 532.9L445.2 532.9L432.6 551ZM430.5 542.8L430.5 542.8Q428.3 542.8 427.1 541.5Q425.9 540.2 425.9 537.7L425.9 537.7Q425.9 535.1 427.1 533.8Q428.3 532.5 430.5 532.5L430.5 532.5Q432.8 532.5 434.0 533.8Q435.2 535.1 435.2 537.7L435.2 537.7Q435.2 540.2 434.0 541.5Q432.8 542.8 430.5 542.8ZM430.5 540.6L430.5 540.6Q431.2 540.6 431.6 540.1Q431.9 539.5 431.9 538.4L431.9 538.4L431.9 537.0Q431.9 535.8 431.6 535.3Q431.2 534.8 430.5 534.8L430.5 534.8Q429.9 534.8 429.5 535.3Q429.2 535.8 429.2 537.0L429.2 537.0L429.2 538.4Q429.2 539.5 429.5 540.1Q429.9 540.6 430.5 540.6ZM443.9 551.3L443.9 551.3Q441.6 551.3 440.4 550.0Q439.2 548.7 439.2 546.2L439.2 546.2Q439.2 543.6 440.4 542.3Q441.6 541.0 443.9 541.0L443.9 541.0Q446.2 541.0 447.4 542.3Q448.6 543.6 448.6 546.2L448.6 546.2Q448.6 548.7 447.4 550.0Q446.2 551.3 443.9 551.3ZM443.9 549.1L443.9 549.1Q444.6 549.1 444.9 548.5Q445.3 548.0 445.3 546.8L445.3 546.8L445.3 545.5Q445.3 544.3 444.9 543.8Q444.6 543.3 443.9 543.3L443.9 543.3Q443.2 543.3 442.9 543.8Q442.6 544.3 442.6 545.5L442.6 545.5L442.6 546.8Q442.6 548.0 442.9 548.5Q443.2 549.1 443.9 549.1Z M459.7 535.9L459.7 535.9Q458.6 535.9 458.0 535.4Q457.5 534.8 457.5 534.0L457.5 534.0L457.5 533.4Q457.5 532.6 458.0 532.1Q458.6 531.5 459.7 531.5L459.7 531.5Q460.9 531.5 461.4 532.1Q462.0 532.6 462.0 533.4L462.0 533.4L462.0 534.0Q462.0 534.8 461.4 535.4Q460.9 535.9 459.7 535.9ZM457.8 551L457.8 537.4L461.7 537.4L461.7 551L457.8 551ZM469.1 551L465.2 551L465.2 537.4L469.1 537.4L469.1 539.7L469.3 539.7Q469.6 538.6 470.5 537.8Q471.4 537.0 473.0 537.0L473.0 537.0Q475.2 537.0 476.2 538.4Q477.3 539.8 477.3 542.4L477.3 542.4L477.3 551L473.5 551L473.5 542.8Q473.5 541.4 473.0 540.8Q472.6 540.2 471.6 540.2L471.6 540.2Q471.1 540.2 470.7 540.3Q470.2 540.4 469.9 540.7Q469.5 540.9 469.3 541.3Q469.1 541.7 469.1 542.2L469.1 542.2L469.1 551Z M493.2 543.7L495.2 537.4L498.8 537.4L493.6 553.1Q493.0 554.7 492.1 555.4Q491.1 556.2 489.4 556.2L489.4 556.2L487.0 556.2L487.0 553.2L489.6 553.2L490.0 551.7L485.2 537.4L489.1 537.4L491.1 543.7L492.1 547.7L492.2 547.7L493.2 543.7ZM506.1 551.3L506.1 551.3Q504.6 551.3 503.4 550.8Q502.2 550.3 501.4 549.4Q500.6 548.5 500.1 547.1Q499.7 545.8 499.7 544.2L499.7 544.2Q499.7 542.5 500.1 541.2Q500.6 539.9 501.4 538.9Q502.2 538.0 503.4 537.5Q504.6 537.0 506.1 537.0L506.1 537.0Q507.6 537.0 508.8 537.5Q510.0 538.0 510.8 538.9Q511.6 539.9 512.0 541.2Q512.5 542.5 512.5 544.2L512.5 544.2Q512.5 545.8 512.0 547.1Q511.6 548.5 510.8 549.4Q510.0 550.3 508.8 550.8Q507.6 551.3 506.1 551.3ZM506.1 548.3L506.1 548.3Q507.2 548.3 507.9 547.6Q508.5 546.9 508.5 545.6L508.5 545.6L508.5 542.8Q508.5 541.5 507.9 540.8Q507.2 540.1 506.1 540.1L506.1 540.1Q505.0 540.1 504.3 540.8Q503.7 541.5 503.7 542.8L503.7 542.8L503.7 545.6Q503.7 546.9 504.3 547.6Q505.0 548.3 506.1 548.3ZM523.3 551L523.3 548.7L523.2 548.7Q523.0 549.2 522.7 549.7Q522.4 550.2 521.9 550.5Q521.4 550.9 520.8 551.1Q520.2 551.3 519.3 551.3L519.3 551.3Q517.2 551.3 516.1 549.9Q515.1 548.5 515.1 545.9L515.1 545.9L515.1 537.4L518.9 537.4L518.9 545.6Q518.9 546.8 519.4 547.5Q519.8 548.2 520.9 548.2L520.9 548.2Q521.3 548.2 521.7 548.1Q522.2 547.9 522.5 547.7Q522.9 547.4 523.1 547.1Q523.3 546.7 523.3 546.2L523.3 546.2L523.3 537.4L527.1 537.4L527.1 551L523.3 551ZM534.6 551L530.7 551L530.7 537.4L534.6 537.4L534.6 540.3L534.7 540.3Q534.8 539.7 535.1 539.2Q535.3 538.7 535.7 538.3Q536.2 537.8 536.8 537.6Q537.4 537.4 538.2 537.4L538.2 537.4L538.9 537.4L538.9 540.9L537.9 540.9Q536.2 540.9 535.4 541.4Q534.6 541.8 534.6 543.0L534.6 543.0L534.6 551Z M547.4 551L547.4 531.8L551.2 531.8L551.2 539.6L551.3 539.6Q551.6 538.5 552.6 537.8Q553.7 537.0 555.0 537.0L555.0 537.0Q557.6 537.0 558.9 538.9Q560.3 540.7 560.3 544.2L560.3 544.2Q560.3 547.6 558.9 549.5Q557.6 551.3 555.0 551.3L555.0 551.3Q554.3 551.3 553.7 551.1Q553.1 550.9 552.6 550.6Q552.2 550.2 551.8 549.7Q551.5 549.3 551.3 548.7L551.3 548.7L551.2 548.7L551.2 551L547.4 551ZM553.7 548.2L553.7 548.2Q554.8 548.2 555.5 547.4Q556.3 546.7 556.3 545.4L556.3 545.4L556.3 543.0Q556.3 541.7 555.5 540.9Q554.8 540.2 553.7 540.2L553.7 540.2Q552.6 540.2 551.9 540.7Q551.2 541.2 551.2 542.2L551.2 542.2L551.2 546.2Q551.2 547.1 551.9 547.7Q552.6 548.2 553.7 548.2ZM567.0 551L563.2 551L563.2 537.4L567.0 537.4L567.0 540.3L567.1 540.3Q567.2 539.7 567.5 539.2Q567.8 538.7 568.2 538.3Q568.6 537.8 569.2 537.6Q569.8 537.4 570.6 537.4L570.6 537.4L571.3 537.4L571.3 540.9L570.3 540.9Q568.7 540.9 567.8 541.4Q567.0 541.8 567.0 543.0L567.0 543.0L567.0 551ZM579.1 551.3L579.1 551.3Q577.6 551.3 576.4 550.8Q575.2 550.3 574.4 549.4Q573.6 548.5 573.1 547.1Q572.7 545.8 572.7 544.2L572.7 544.2Q572.7 542.5 573.1 541.2Q573.6 539.9 574.4 538.9Q575.2 538.0 576.4 537.5Q577.6 537.0 579.1 537.0L579.1 537.0Q580.6 537.0 581.8 537.5Q583.0 538.0 583.8 538.9Q584.6 539.9 585.0 541.2Q585.5 542.5 585.5 544.2L585.5 544.2Q585.5 545.8 585.0 547.1Q584.6 548.5 583.8 549.4Q583.0 550.3 581.8 550.8Q580.6 551.3 579.1 551.3ZM579.1 548.3L579.1 548.3Q580.2 548.3 580.8 547.6Q581.5 546.9 581.5 545.6L581.5 545.6L581.5 542.8Q581.5 541.5 580.8 540.8Q580.2 540.1 579.1 540.1L579.1 540.1Q577.9 540.1 577.3 540.8Q576.7 541.5 576.7 542.8L576.7 542.8L576.7 545.6Q576.7 546.9 577.3 547.6Q577.9 548.3 579.1 548.3ZM590.5 551L586.6 537.4L590.4 537.4L591.7 542.9L592.6 547.0L592.7 547.0L593.8 542.9L595.4 537.4L598.9 537.4L600.5 542.9L601.6 547.0L601.7 547.0L602.6 542.9L604.0 537.4L607.5 537.4L603.8 551L599.7 551L598.1 545.2L597.1 541.7L597.0 541.7L596.1 545.2L594.4 551L590.5 551ZM614.3 551.3L614.3 551.3Q612.4 551.3 611.0 550.7Q609.7 550.0 608.6 548.9L608.6 548.9L610.9 546.6Q611.6 547.4 612.5 547.9Q613.3 548.3 614.5 548.3L614.5 548.3Q615.6 548.3 616.1 548.0Q616.5 547.6 616.5 547.0L616.5 547.0Q616.5 546.1 615.1 545.9L615.1 545.9L613.6 545.7Q609.0 545.1 609.0 541.5L609.0 541.5Q609.0 540.5 609.4 539.7Q609.8 538.9 610.5 538.3Q611.2 537.7 612.1 537.4Q613.1 537.0 614.3 537.0L614.3 537.0Q615.4 537.0 616.2 537.2Q617.0 537.3 617.7 537.6Q618.3 537.9 618.8 538.3Q619.4 538.7 619.9 539.2L619.9 539.2L617.7 541.4Q617.0 540.8 616.2 540.4Q615.4 540.0 614.5 540.0L614.5 540.0Q613.6 540.0 613.1 540.3Q612.7 540.7 612.7 541.2L612.7 541.2Q612.7 541.7 613.0 542.0Q613.3 542.3 614.2 542.4L614.2 542.4L615.7 542.7Q620.2 543.3 620.2 546.8L620.2 546.8Q620.2 547.8 619.8 548.6Q619.4 549.4 618.6 550.0Q617.8 550.6 616.7 551.0Q615.7 551.3 614.3 551.3ZM628.5 551.3L628.5 551.3Q626.9 551.3 625.7 550.8Q624.5 550.3 623.7 549.4Q622.8 548.5 622.4 547.1Q622.0 545.8 622.0 544.2L622.0 544.2Q622.0 542.5 622.4 541.2Q622.8 539.9 623.6 539.0Q624.4 538.1 625.6 537.5Q626.8 537.0 628.3 537.0L628.3 537.0Q630.0 537.0 631.2 537.6Q632.5 538.2 633.2 539.1Q634.0 540.1 634.3 541.4Q634.7 542.6 634.7 544.0L634.7 544.0L634.7 545.1L625.9 545.1L625.9 545.4Q625.9 546.7 626.7 547.5Q627.4 548.3 628.9 548.3L628.9 548.3Q630.1 548.3 630.9 547.8Q631.7 547.3 632.3 546.7L632.3 546.7L634.2 549.0Q633.3 550.1 631.8 550.7Q630.4 551.3 628.5 551.3ZM628.4 539.9L628.4 539.9Q627.3 539.9 626.6 540.6Q625.9 541.4 625.9 542.7L625.9 542.7L625.9 542.9L630.7 542.9L630.7 542.7Q630.7 541.4 630.2 540.6Q629.6 539.9 628.4 539.9ZM641.3 551L637.4 551L637.4 537.4L641.3 537.4L641.3 540.3L641.4 540.3Q641.5 539.7 641.8 539.2Q642.0 538.7 642.5 538.3Q642.9 537.8 643.5 537.6Q644.1 537.4 644.9 537.4L644.9 537.4L645.6 537.4L645.6 540.9L644.6 540.9Q642.9 540.9 642.1 541.4Q641.3 541.8 641.3 543.0L641.3 543.0L641.3 551ZM648.1 551.3L648.1 551.3Q646.9 551.3 646.4 550.7Q645.8 550.1 645.8 549.2L645.8 549.2L645.8 548.7Q645.8 547.8 646.4 547.2Q646.9 546.6 648.1 546.6L648.1 546.6Q649.3 546.6 649.8 547.2Q650.4 547.8 650.4 548.7L650.4 548.7L650.4 549.2Q650.4 550.1 649.8 550.7Q649.3 551.3 648.1 551.3Z "/></g><mask id="satori_om-id-2-1"><rect x="840" y="526" width="288" height="31" fill="#fff"/></mask><g  ><path fill="#6e7681" d="M842.0 551L842.0 533.2L844.0 533.2L844.0 540.6L844.1 540.6Q844.5 539.5 845.5 538.9Q846.4 538.3 847.7 538.3L847.7 538.3Q848.8 538.3 849.8 538.8Q850.7 539.2 851.4 540.1Q852.0 540.9 852.4 542.1Q852.7 543.3 852.7 544.8L852.7 544.8Q852.7 546.3 852.4 547.5Q852.0 548.7 851.4 549.5Q850.7 550.4 849.8 550.8Q848.8 551.3 847.7 551.3L847.7 551.3Q845.2 551.3 844.1 549.0L844.1 549.0L844.0 549.0L844.0 551L842.0 551ZM847.2 549.6L847.2 549.6Q848.8 549.6 849.7 548.5Q850.7 547.5 850.7 545.9L850.7 545.9L850.7 543.8Q850.7 542.1 849.7 541.1Q848.8 540.1 847.2 540.1L847.2 540.1Q846.5 540.1 845.9 540.2Q845.3 540.4 844.9 540.7Q844.5 541.0 844.2 541.5Q844.0 541.9 844.0 542.4L844.0 542.4L844.0 547.0Q844.0 547.6 844.2 548.1Q844.5 548.6 844.9 548.9Q845.3 549.2 845.9 549.4Q846.5 549.6 847.2 549.6ZM857.9 551L856.0 551L856.0 538.6L857.9 538.6L857.9 540.9L858 540.9Q858.3 540.0 859.2 539.3Q860.1 538.6 861.6 538.6L861.6 538.6L862.3 538.6L862.3 540.5L861.2 540.5Q859.6 540.5 858.8 541.1Q857.9 541.7 857.9 542.6L857.9 542.6L857.9 551ZM869.3 551.3L869.3 551.3Q868.1 551.3 867.0 550.8Q866.0 550.4 865.3 549.5Q864.6 548.7 864.1 547.5Q863.7 546.3 863.7 544.8L863.7 544.8Q863.7 543.3 864.1 542.1Q864.6 540.9 865.3 540.1Q866.0 539.2 867.0 538.8Q868.1 538.3 869.3 538.3L869.3 538.3Q870.6 538.3 871.6 538.8Q872.6 539.2 873.4 540.1Q874.1 540.9 874.5 542.1Q874.9 543.3 874.9 544.8L874.9 544.8Q874.9 546.3 874.5 547.5Q874.1 548.7 873.4 549.5Q872.6 550.4 871.6 550.8Q870.6 551.3 869.3 551.3ZM869.3 549.6L869.3 549.6Q870.9 549.6 871.9 548.6Q872.9 547.7 872.9 545.7L872.9 545.7L872.9 543.9Q872.9 542.0 871.9 541.0Q870.9 540.0 869.3 540.0L869.3 540.0Q867.8 540.0 866.8 541.0Q865.8 542.0 865.8 543.9L865.8 543.9L865.8 545.7Q865.8 547.7 866.8 548.6Q867.8 549.6 869.3 549.6ZM880.0 551L876.7 538.6L878.5 538.6L879.9 544.0L881.2 549.4L881.2 549.4L882.7 544.0L884.3 538.6L886.0 538.6L887.6 544.0L889.2 549.4L889.2 549.4L890.5 544.0L891.8 538.6L893.6 538.6L890.3 551L888.0 551L886.2 545.0L885.1 541.3L885.1 541.3L884.0 545.0L882.3 551L880.0 551ZM900.1 551.3L900.1 551.3Q898.3 551.3 897.2 550.6Q896.0 550.0 895.2 548.9L895.2 548.9L896.5 547.8Q897.3 548.7 898.2 549.2Q899.0 549.7 900.2 549.7L900.2 549.7Q901.4 549.7 902.1 549.1Q902.8 548.6 902.8 547.6L902.8 547.6Q902.8 546.9 902.3 546.4Q901.9 545.9 900.6 545.7L900.6 545.7L899.7 545.6Q898.8 545.4 898.1 545.2Q897.4 544.9 896.8 544.5Q896.3 544.1 896.0 543.5Q895.7 542.8 895.7 542.0L895.7 542.0Q895.7 541.1 896.0 540.4Q896.4 539.7 896.9 539.2Q897.5 538.8 898.3 538.6Q899.2 538.3 900.1 538.3L900.1 538.3Q901.6 538.3 902.6 538.9Q903.6 539.4 904.4 540.3L904.4 540.3L903.1 541.5Q902.7 540.9 901.9 540.4Q901.2 540.0 900.0 540.0L900.0 540.0Q898.8 540.0 898.1 540.5Q897.5 541.0 897.5 541.9L897.5 541.9Q897.5 542.8 898.1 543.2Q898.8 543.6 899.9 543.8L899.9 543.8L900.9 543.9Q902.9 544.3 903.8 545.1Q904.7 546.0 904.7 547.4L904.7 547.4Q904.7 549.2 903.4 550.3Q902.2 551.3 900.1 551.3ZM912.7 551.3L912.7 551.3Q911.4 551.3 910.4 550.8Q909.4 550.4 908.7 549.5Q907.9 548.7 907.5 547.5Q907.1 546.3 907.1 544.8L907.1 544.8Q907.1 543.3 907.5 542.1Q907.9 540.9 908.7 540.1Q909.4 539.2 910.4 538.8Q911.4 538.3 912.7 538.3L912.7 538.3Q913.9 538.3 914.9 538.8Q915.9 539.2 916.6 540.0Q917.3 540.8 917.7 542.0Q918.0 543.1 918.0 544.4L918.0 544.4L918.0 545.3L909.1 545.3L909.1 545.9Q909.1 546.7 909.4 547.3Q909.6 548.0 910.1 548.5Q910.6 549.0 911.3 549.3Q912.0 549.6 912.8 549.6L912.8 549.6Q914.0 549.6 914.9 549.1Q915.7 548.5 916.2 547.5L916.2 547.5L917.6 548.5Q917.0 549.7 915.7 550.5Q914.4 551.3 912.7 551.3ZM912.7 539.9L912.7 539.9Q911.9 539.9 911.3 540.2Q910.6 540.5 910.1 541.0Q909.7 541.5 909.4 542.2Q909.1 542.9 909.1 543.7L909.1 543.7L909.1 543.8L916.0 543.8L916.0 543.6Q916.0 541.9 915.1 540.9Q914.2 539.9 912.7 539.9ZM923.1 551L921.2 551L921.2 538.6L923.1 538.6L923.1 540.9L923.3 540.9Q923.6 540.0 924.5 539.3Q925.3 538.6 926.8 538.6L926.8 538.6L927.6 538.6L927.6 540.5L926.4 540.5Q924.9 540.5 924.0 541.1Q923.1 541.7 923.1 542.6L923.1 542.6L923.1 551ZM931.0 535.7L931.0 535.7Q930.4 535.7 930.1 535.4Q929.8 535.1 929.8 534.6L929.8 534.6L929.8 534.3Q929.8 533.8 930.1 533.5Q930.4 533.2 931.0 533.2L931.0 533.2Q931.6 533.2 931.9 533.5Q932.2 533.8 932.2 534.3L932.2 534.3L932.2 534.6Q932.2 535.1 931.9 535.4Q931.6 535.7 931.0 535.7ZM930.0 551L930.0 538.6L931.9 538.6L931.9 551L930.0 551ZM937.9 551L936.0 551L936.0 538.6L937.9 538.6L937.9 540.6L938.0 540.6Q938.3 540.2 938.5 539.7Q938.8 539.3 939.2 539Q939.6 538.7 940.1 538.5Q940.7 538.3 941.4 538.3L941.4 538.3Q942.6 538.3 943.6 538.9Q944.7 539.5 945.2 540.8L945.2 540.8L945.2 540.8Q945.6 539.8 946.5 539.1Q947.4 538.3 949.0 538.3L949.0 538.3Q950.9 538.3 951.9 539.6Q953.0 540.8 953.0 543.1L953.0 543.1L953.0 551L951.1 551L951.1 543.4Q951.1 541.7 950.4 540.9Q949.8 540.1 948.4 540.1L948.4 540.1Q947.8 540.1 947.3 540.2Q946.8 540.3 946.4 540.6Q946.0 540.9 945.7 541.4Q945.5 541.8 945.5 542.4L945.5 542.4L945.5 551L943.6 551L943.6 543.4Q943.6 541.7 942.9 540.9Q942.3 540.1 940.9 540.1L940.9 540.1Q940.3 540.1 939.8 540.2Q939.3 540.3 938.9 540.6Q938.4 540.9 938.2 541.4Q937.9 541.8 937.9 542.4L937.9 542.4L937.9 551ZM967.1 551L966.0 551Q964.9 551 964.4 550.4Q964.0 549.8 963.8 549.0L963.8 549.0L963.7 549.0Q963.3 550.1 962.4 550.7Q961.4 551.3 960.1 551.3L960.1 551.3Q958.2 551.3 957.1 550.3Q956.0 549.3 956.0 547.5L956.0 547.5Q956.0 545.8 957.3 544.9Q958.6 543.9 961.3 543.9L961.3 543.9L963.7 543.9L963.7 542.7Q963.7 541.4 963 540.7Q962.3 540.0 960.8 540.0L960.8 540.0Q959.7 540.0 958.9 540.5Q958.2 541.0 957.6 541.8L957.6 541.8L956.5 540.8Q957 539.7 958.1 539.0Q959.2 538.3 960.9 538.3L960.9 538.3Q963.1 538.3 964.4 539.4Q965.6 540.5 965.6 542.5L965.6 542.5L965.6 549.3L967.1 549.3L967.1 551ZM960.5 549.7L960.5 549.7Q961.2 549.7 961.8 549.5Q962.4 549.3 962.8 549.0Q963.2 548.7 963.5 548.3Q963.7 547.9 963.7 547.4L963.7 547.4L963.7 545.4L961.2 545.4Q959.5 545.4 958.8 545.8Q958.0 546.3 958.0 547.2L958.0 547.2L958.0 547.7Q958.0 548.6 958.7 549.2Q959.3 549.7 960.5 549.7ZM980.2 552.4L980.2 552.4Q980.2 554.3 978.7 555.2Q977.2 556.1 974.2 556.1L974.2 556.1Q971.3 556.1 970.1 555.3Q968.8 554.5 968.8 553.0L968.8 553.0Q968.8 552.0 969.3 551.5Q969.8 550.9 970.8 550.6L970.8 550.6L970.8 550.4Q969.6 549.8 969.6 548.6L969.6 548.6Q969.6 547.7 970.2 547.2Q970.8 546.7 971.8 546.5L971.8 546.5L971.8 546.4Q970.7 545.9 970.1 544.9Q969.5 543.9 969.5 542.6L969.5 542.6Q969.5 541.7 969.8 540.9Q970.1 540.1 970.7 539.5Q971.4 539.0 972.2 538.6Q973.1 538.3 974.1 538.3L974.1 538.3Q975.4 538.3 976.5 538.8L976.5 538.8L976.5 538.6Q976.5 537.9 976.8 537.4Q977.1 536.9 977.9 536.9L977.9 536.9L979.8 536.9L979.8 538.6L977.4 538.6L977.4 539.4Q978.1 540.0 978.4 540.8Q978.8 541.6 978.8 542.6L978.8 542.6Q978.8 543.5 978.5 544.3Q978.1 545.1 977.5 545.7Q976.9 546.2 976.1 546.6Q975.2 546.9 974.1 546.9L974.1 546.9Q973.5 546.9 972.9 546.8L972.9 546.8Q972.3 546.9 971.8 547.2Q971.3 547.6 971.3 548.1L971.3 548.1Q971.3 548.7 971.8 548.9Q972.4 549.1 973.2 549.1L973.2 549.1L975.8 549.1Q978.1 549.1 979.2 550.0Q980.2 550.8 980.2 552.4ZM978.4 552.5L978.4 552.5Q978.4 551.8 977.9 551.3Q977.3 550.9 975.9 550.9L975.9 550.9L971.7 550.9Q970.6 551.4 970.6 552.6L970.6 552.6Q970.6 553.4 971.2 554.0Q971.8 554.5 973.3 554.5L973.3 554.5L975.0 554.5Q976.7 554.5 977.5 554.0Q978.4 553.5 978.4 552.5ZM974.1 545.3L974.1 545.3Q975.4 545.3 976.1 544.7Q976.8 544.2 976.8 542.9L976.8 542.9L976.8 542.3Q976.8 541.0 976.1 540.5Q975.4 539.9 974.1 539.9L974.1 539.9Q972.9 539.9 972.2 540.5Q971.5 541.0 971.5 542.3L971.5 542.3L971.5 542.9Q971.5 544.2 972.2 544.7Q972.9 545.3 974.1 545.3ZM987.0 551.3L987.0 551.3Q985.7 551.3 984.7 550.8Q983.7 550.4 982.9 549.5Q982.2 548.7 981.8 547.5Q981.4 546.3 981.4 544.8L981.4 544.8Q981.4 543.3 981.8 542.1Q982.2 540.9 982.9 540.1Q983.7 539.2 984.7 538.8Q985.7 538.3 987.0 538.3L987.0 538.3Q988.2 538.3 989.2 538.8Q990.2 539.2 990.9 540.0Q991.6 540.8 992.0 542.0Q992.3 543.1 992.3 544.4L992.3 544.4L992.3 545.3L983.4 545.3L983.4 545.9Q983.4 546.7 983.7 547.3Q983.9 548.0 984.4 548.5Q984.9 549.0 985.5 549.3Q986.2 549.6 987.1 549.6L987.1 549.6Q988.3 549.6 989.1 549.1Q990.0 548.5 990.5 547.5L990.5 547.5L991.9 548.5Q991.3 549.7 990.0 550.5Q988.7 551.3 987.0 551.3ZM987.0 539.9L987.0 539.9Q986.2 539.9 985.5 540.2Q984.9 540.5 984.4 541.0Q984.0 541.5 983.7 542.2Q983.4 542.9 983.4 543.7L983.4 543.7L983.4 543.8L990.3 543.8L990.3 543.6Q990.3 541.9 989.4 540.9Q988.5 539.9 987.0 539.9ZM1000.2 551.3L1000.2 551.3Q998.9 551.3 997.9 550.8Q996.8 550.4 996.1 549.5Q995.4 548.7 995.0 547.5Q994.6 546.3 994.6 544.8L994.6 544.8Q994.6 543.3 995.0 542.1Q995.4 540.9 996.1 540.1Q996.8 539.2 997.9 538.8Q998.9 538.3 1000.2 538.3L1000.2 538.3Q1001.4 538.3 1002.4 538.8Q1003.4 539.2 1004.1 540.0Q1004.8 540.8 1005.1 542.0Q1005.5 543.1 1005.5 544.4L1005.5 544.4L1005.5 545.3L996.6 545.3L996.6 545.9Q996.6 546.7 996.9 547.3Q997.1 548.0 997.6 548.5Q998.0 549.0 998.7 549.3Q999.4 549.6 1000.3 549.6L1000.3 549.6Q1001.4 549.6 1002.3 549.1Q1003.2 548.5 1003.7 547.5L1003.7 547.5L1005.0 548.5Q1004.4 549.7 1003.2 550.5Q1001.9 551.3 1000.2 551.3ZM1000.2 539.9L1000.2 539.9Q999.4 539.9 998.7 540.2Q998.1 540.5 997.6 541.0Q997.1 541.5 996.9 542.2Q996.6 542.9 996.6 543.7L996.6 543.7L996.6 543.8L1003.4 543.8L1003.4 543.6Q1003.4 541.9 1002.5 540.9Q1001.6 539.9 1000.2 539.9ZM1016.6 551L1016.6 549.0L1016.5 549.0Q1015.4 551.3 1012.9 551.3L1012.9 551.3Q1011.7 551.3 1010.8 550.8Q1009.8 550.4 1009.2 549.5Q1008.5 548.7 1008.2 547.5Q1007.8 546.3 1007.8 544.8L1007.8 544.8Q1007.8 543.3 1008.2 542.1Q1008.5 540.9 1009.2 540.1Q1009.8 539.2 1010.8 538.8Q1011.7 538.3 1012.9 538.3L1012.9 538.3Q1014.2 538.3 1015.1 538.9Q1016.0 539.5 1016.5 540.6L1016.5 540.6L1016.6 540.6L1016.6 533.2L1018.5 533.2L1018.5 551L1016.6 551ZM1013.4 549.6L1013.4 549.6Q1014.0 549.6 1014.6 549.4Q1015.2 549.2 1015.7 548.9Q1016.1 548.6 1016.3 548.1Q1016.6 547.6 1016.6 547.0L1016.6 547.0L1016.6 542.4Q1016.6 541.9 1016.3 541.5Q1016.1 541.0 1015.7 540.7Q1015.2 540.4 1014.6 540.2Q1014.0 540.1 1013.4 540.1L1013.4 540.1Q1011.8 540.1 1010.8 541.1Q1009.9 542.1 1009.9 543.8L1009.9 543.8L1009.9 545.9Q1009.9 547.5 1010.8 548.5Q1011.8 549.6 1013.4 549.6ZM1023.6 535.7L1023.6 535.7Q1022.9 535.7 1022.7 535.4Q1022.4 535.1 1022.4 534.6L1022.4 534.6L1022.4 534.3Q1022.4 533.8 1022.7 533.5Q1022.9 533.2 1023.6 533.2L1023.6 533.2Q1024.2 533.2 1024.5 533.5Q1024.7 533.8 1024.7 534.3L1024.7 534.3L1024.7 534.6Q1024.7 535.1 1024.5 535.4Q1024.2 535.7 1023.6 535.7ZM1022.6 551L1022.6 538.6L1024.5 538.6L1024.5 551L1022.6 551ZM1033.7 551L1031.3 551Q1030.3 551 1029.8 550.4Q1029.3 549.9 1029.3 549.0L1029.3 549.0L1029.3 540.3L1027.2 540.3L1027.2 538.6L1028.4 538.6Q1029.0 538.6 1029.3 538.4Q1029.5 538.1 1029.5 537.5L1029.5 537.5L1029.5 535.2L1031.2 535.2L1031.2 538.6L1033.9 538.6L1033.9 540.3L1031.2 540.3L1031.2 549.3L1033.7 549.3L1033.7 551ZM1041.6 551.3L1041.6 551.3Q1040.4 551.3 1039.3 550.8Q1038.3 550.4 1037.6 549.5Q1036.8 548.7 1036.4 547.5Q1036.0 546.3 1036.0 544.8L1036.0 544.8Q1036.0 543.3 1036.4 542.1Q1036.8 540.9 1037.6 540.1Q1038.3 539.2 1039.3 538.8Q1040.4 538.3 1041.6 538.3L1041.6 538.3Q1042.8 538.3 1043.9 538.8Q1044.9 539.2 1045.6 540.1Q1046.4 540.9 1046.8 542.1Q1047.2 543.3 1047.2 544.8L1047.2 544.8Q1047.2 546.3 1046.8 547.5Q1046.4 548.7 1045.6 549.5Q1044.9 550.4 1043.9 550.8Q1042.8 551.3 1041.6 551.3ZM1041.6 549.6L1041.6 549.6Q1043.2 549.6 1044.1 548.6Q1045.1 547.7 1045.1 545.7L1045.1 545.7L1045.1 543.9Q1045.1 542.0 1044.1 541.0Q1043.2 540.0 1041.6 540.0L1041.6 540.0Q1040.0 540.0 1039.1 541.0Q1038.1 542.0 1038.1 543.9L1038.1 543.9L1038.1 545.7Q1038.1 547.7 1039.1 548.6Q1040.0 549.6 1041.6 549.6ZM1052.3 551L1050.4 551L1050.4 538.6L1052.3 538.6L1052.3 540.9L1052.4 540.9Q1052.7 540.0 1053.6 539.3Q1054.5 538.6 1056.0 538.6L1056.0 538.6L1056.7 538.6L1056.7 540.5L1055.6 540.5Q1054.0 540.5 1053.2 541.1Q1052.3 541.7 1052.3 542.6L1052.3 542.6L1052.3 551ZM1058.5 551.3L1058.5 551.3Q1057.7 551.3 1057.4 550.9Q1057.0 550.5 1057.0 549.9L1057.0 549.9L1057.0 549.6Q1057.0 549.0 1057.4 548.6Q1057.7 548.2 1058.5 548.2L1058.5 548.2Q1059.2 548.2 1059.6 548.6Q1059.9 549.0 1059.9 549.6L1059.9 549.6L1059.9 549.9Q1059.9 550.5 1059.6 550.9Q1059.2 551.3 1058.5 551.3ZM1068.2 551.3L1068.2 551.3Q1067.0 551.3 1065.9 550.8Q1064.9 550.4 1064.2 549.5Q1063.4 548.7 1063.0 547.5Q1062.6 546.3 1062.6 544.8L1062.6 544.8Q1062.6 543.3 1063.0 542.1Q1063.4 540.9 1064.2 540.1Q1064.9 539.2 1065.9 538.8Q1067.0 538.3 1068.2 538.3L1068.2 538.3Q1069.5 538.3 1070.5 538.8Q1071.5 539.2 1072.2 540.1Q1073.0 540.9 1073.4 542.1Q1073.8 543.3 1073.8 544.8L1073.8 544.8Q1073.8 546.3 1073.4 547.5Q1073.0 548.7 1072.2 549.5Q1071.5 550.4 1070.5 550.8Q1069.5 551.3 1068.2 551.3ZM1068.2 549.6L1068.2 549.6Q1069.8 549.6 1070.8 548.6Q1071.7 547.7 1071.7 545.7L1071.7 545.7L1071.7 543.9Q1071.7 542.0 1070.8 541.0Q1069.8 540.0 1068.2 540.0L1068.2 540.0Q1066.7 540.0 1065.7 541.0Q1064.7 542.0 1064.7 543.9L1064.7 543.9L1064.7 545.7Q1064.7 547.7 1065.7 548.6Q1066.7 549.6 1068.2 549.6ZM1078.9 551L1077.0 551L1077.0 538.6L1078.9 538.6L1078.9 540.6L1079.0 540.6Q1079.4 539.6 1080.3 539.0Q1081.1 538.3 1082.5 538.3L1082.5 538.3Q1084.4 538.3 1085.5 539.6Q1086.6 540.8 1086.6 543.1L1086.6 543.1L1086.6 551L1084.7 551L1084.7 543.4Q1084.7 540.1 1081.9 540.1L1081.9 540.1Q1081.3 540.1 1080.8 540.2Q1080.3 540.3 1079.8 540.6Q1079.4 540.9 1079.1 541.4Q1078.9 541.8 1078.9 542.4L1078.9 542.4L1078.9 551ZM1094.4 551L1092.6 551Q1091.6 551 1091.1 550.4Q1090.6 549.9 1090.6 549.0L1090.6 549.0L1090.6 533.2L1092.5 533.2L1092.5 549.3L1094.4 549.3L1094.4 551ZM1098.1 535.7L1098.1 535.7Q1097.5 535.7 1097.2 535.4Q1096.9 535.1 1096.9 534.6L1096.9 534.6L1096.9 534.3Q1096.9 533.8 1097.2 533.5Q1097.5 533.2 1098.1 533.2L1098.1 533.2Q1098.7 533.2 1099.0 533.5Q1099.3 533.8 1099.3 534.3L1099.3 534.3L1099.3 534.6Q1099.3 535.1 1099.0 535.4Q1098.7 535.7 1098.1 535.7ZM1097.1 551L1097.1 538.6L1099.1 538.6L1099.1 551L1097.1 551ZM1105.1 551L1103.1 551L1103.1 538.6L1105.1 538.6L1105.1 540.6L1105.2 540.6Q1105.6 539.6 1106.4 539.0Q1107.3 538.3 1108.7 538.3L1108.7 538.3Q1110.6 538.3 1111.7 539.6Q1112.8 540.8 1112.8 543.1L1112.8 543.1L1112.8 551L1110.9 551L1110.9 543.4Q1110.9 540.1 1108.1 540.1L1108.1 540.1Q1107.5 540.1 1107.0 540.2Q1106.4 540.3 1106.0 540.6Q1105.6 540.9 1105.3 541.4Q1105.1 541.8 1105.1 542.4L1105.1 542.4L1105.1 551ZM1121.4 551.3L1121.4 551.3Q1120.2 551.3 1119.1 550.8Q1118.1 550.4 1117.4 549.5Q1116.6 548.7 1116.3 547.5Q1115.9 546.3 1115.9 544.8L1115.9 544.8Q1115.9 543.3 1116.3 542.1Q1116.6 540.9 1117.4 540.1Q1118.1 539.2 1119.1 538.8Q1120.2 538.3 1121.4 538.3L1121.4 538.3Q1122.7 538.3 1123.7 538.8Q1124.6 539.2 1125.3 540.0Q1126.0 540.8 1126.4 542.0Q1126.8 543.1 1126.8 544.4L1126.8 544.4L1126.8 545.3L1117.9 545.3L1117.9 545.9Q1117.9 546.7 1118.1 547.3Q1118.4 548.0 1118.8 548.5Q1119.3 549.0 1120.0 549.3Q1120.7 549.6 1121.5 549.6L1121.5 549.6Q1122.7 549.6 1123.6 549.1Q1124.5 548.5 1125.0 547.5L1125.0 547.5L1126.3 548.5Q1125.7 549.7 1124.4 550.5Q1123.2 551.3 1121.4 551.3ZM1121.4 539.9L1121.4 539.9Q1120.6 539.9 1120.0 540.2Q1119.3 540.5 1118.9 541.0Q1118.4 541.5 1118.1 542.2Q1117.9 542.9 1117.9 543.7L1117.9 543.7L1117.9 543.8L1124.7 543.8L1124.7 543.6Q1124.7 541.9 1123.8 540.9Q1122.9 539.9 1121.4 539.9Z "/></g></svg>